<?xml version="1.0" encoding="UTF-8" standalone="no"?>
<!-- Created with Inkscape (http://www.inkscape.org/) -->

<svg
   xmlns:dc="http://purl.org/dc/elements/1.1/"
   xmlns:cc="http://creativecommons.org/ns#"
   xmlns:rdf="http://www.w3.org/1999/02/22-rdf-syntax-ns#"
   xmlns:svg="http://www.w3.org/2000/svg"
   xmlns="http://www.w3.org/2000/svg"
   xmlns:sodipodi="http://sodipodi.sourceforge.net/DTD/sodipodi-0.dtd"
   xmlns:inkscape="http://www.inkscape.org/namespaces/inkscape"
   width="24.86046mm"
   height="26.458332mm"
   viewBox="0 0 24.86046 26.458332"
   version="1.1"
   id="svg8"
   inkscape:version="0.92.4 (5da689c313, 2019-01-14)"
   sodipodi:docname="search.svg">
  <defs
     id="defs2" />
  <sodipodi:namedview
     id="base"
     pagecolor="#ffffff"
     bordercolor="#666666"
     borderopacity="1.0"
     inkscape:pageopacity="0.0"
     inkscape:pageshadow="2"
     inkscape:zoom="6.8000003"
     inkscape:cx="46.980397"
     inkscape:cy="49.999998"
     inkscape:document-units="mm"
     inkscape:current-layer="layer1"
     showgrid="false"
     fit-margin-top="0"
     fit-margin-left="0"
     fit-margin-right="0"
     fit-margin-bottom="0"
     inkscape:window-width="1440"
     inkscape:window-height="847"
     inkscape:window-x="-8"
     inkscape:window-y="22"
     inkscape:window-maximized="1" />
  <metadata
     id="metadata5">
    <rdf:RDF>
      <cc:Work
         rdf:about="">
        <dc:format>image/svg+xml</dc:format>
        <dc:type
           rdf:resource="http://purl.org/dc/dcmitype/StillImage" />
        <dc:title />
      </cc:Work>
    </rdf:RDF>
  </metadata>
  <g
     inkscape:label="Capa 1"
     inkscape:groupmode="layer"
     id="layer1"
     transform="translate(-39.309746,-94.954927)">
    <path
       style="opacity:1;fill:#ffffff;fill-opacity:1;fill-rule:nonzero;stroke:none;stroke-width:0.25315443;stroke-linecap:butt;stroke-linejoin:miter;stroke-miterlimit:4;stroke-dasharray:none;stroke-dashoffset:0;stroke-opacity:1;paint-order:normal"
       d="m 49.777658,94.954927 a 10.467999,10.467999 0 0 0 -10.467912,10.468113 10.467999,10.467999 0 0 0 10.467912,10.46791 10.467999,10.467999 0 0 0 6.127632,-1.99336 l 6.415681,7.51567 1.849235,-2.34772 -6.14658,-7.20021 A 10.467999,10.467999 0 0 0 60.24557,105.42304 10.467999,10.467999 0 0 0 49.777658,94.954927 Z m 0,1.76921 a 8.6987591,8.6987591 0 0 1 8.698702,8.698903 8.6987591,8.6987591 0 0 1 -8.698702,8.6987 8.6987591,8.6987591 0 0 1 -8.698702,-8.6987 8.6987591,8.6987591 0 0 1 8.698702,-8.698903 z"
       id="path12"
       inkscape:connector-curvature="0" />
  </g>
</svg>
