<?xml version="1.0" encoding="UTF-8" standalone="no"?>
<!-- Created with Inkscape (http://www.inkscape.org/) -->

<svg
   xmlns:dc="http://purl.org/dc/elements/1.1/"
   xmlns:cc="http://creativecommons.org/ns#"
   xmlns:rdf="http://www.w3.org/1999/02/22-rdf-syntax-ns#"
   xmlns:svg="http://www.w3.org/2000/svg"
   xmlns="http://www.w3.org/2000/svg"
   xmlns:sodipodi="http://sodipodi.sourceforge.net/DTD/sodipodi-0.dtd"
   xmlns:inkscape="http://www.inkscape.org/namespaces/inkscape"
   width="26.45813mm"
   height="26.458429mm"
   viewBox="0 0 26.45813 26.458429"
   version="1.1"
   id="svg8"
   inkscape:version="0.92.4 (5da689c313, 2019-01-14)"
   sodipodi:docname="user.svg">
  <defs
     id="defs2" />
  <sodipodi:namedview
     id="base"
     pagecolor="#ffffff"
     bordercolor="#666666"
     borderopacity="1.0"
     inkscape:pageopacity="0.0"
     inkscape:pageshadow="2"
     inkscape:zoom="6.7999753"
     inkscape:cx="49.999616"
     inkscape:cy="50.000181"
     inkscape:document-units="mm"
     inkscape:current-layer="layer1"
     showgrid="false"
     fit-margin-top="0"
     fit-margin-left="0"
     fit-margin-right="0"
     fit-margin-bottom="0"
     inkscape:window-width="1440"
     inkscape:window-height="847"
     inkscape:window-x="-8"
     inkscape:window-y="22"
     inkscape:window-maximized="1" />
  <metadata
     id="metadata5">
    <rdf:RDF>
      <cc:Work
         rdf:about="">
        <dc:format>image/svg+xml</dc:format>
        <dc:type
           rdf:resource="http://purl.org/dc/dcmitype/StillImage" />
        <dc:title></dc:title>
      </cc:Work>
    </rdf:RDF>
  </metadata>
  <g
     inkscape:label="Capa 1"
     inkscape:groupmode="layer"
     id="layer1"
     transform="translate(-233.96711,-151.47916)">
    <path
       style="opacity:1;fill:#ffffff;fill-opacity:1;fill-rule:nonzero;stroke:none;stroke-width:0.14286135;stroke-linecap:butt;stroke-linejoin:miter;stroke-miterlimit:4;stroke-dasharray:none;stroke-dashoffset:0;stroke-opacity:1;paint-order:normal"
       d="m 247.19627,151.47916 a 13.22914,13.22914 0 0 0 -5.15163,1.04434 13.22914,13.22914 0 0 0 -4.33827,2.96797 13.22914,13.22914 0 0 0 -1.642,2.06912 13.22914,13.22914 0 0 0 -0.65796,1.14696 13.22914,13.22914 0 0 0 0,1.3e-4 13.22914,13.22914 0 0 0 -0.54019,1.20686 13.22914,13.22914 0 0 0 0,1.3e-4 13.22914,13.22914 0 0 0 -0.70659,2.54514 13.22914,13.22914 0 0 0 -0.19252,2.24851 13.22914,13.22914 0 0 0 4.31964,9.75999 13.22914,13.22914 0 0 0 0.21048,0.1936 8.8194272,8.8194272 0 0 1 -5.3e-4,-0.009 13.22914,13.22914 0 0 0 8.69945,3.28468 13.22914,13.22914 0 0 0 8.90857,-3.47051 8.8194272,8.8194272 0 0 1 -1.3e-4,0.002 13.22914,13.22914 0 0 0 0.0284,-0.0285 13.22914,13.22914 0 0 0 0.87017,-0.87633 13.22914,13.22914 0 0 0 0.0801,-0.0911 13.22914,13.22914 0 0 0 0.74062,-0.9121 13.22914,13.22914 0 0 0 0.10959,-0.15327 13.22914,13.22914 0 0 0 0.60798,-0.92376 13.22914,13.22914 0 0 0 0.12915,-0.22521 13.22914,13.22914 0 0 0 0.48004,-0.9176 13.22914,13.22914 0 0 0 0.13424,-0.29984 13.22914,13.22914 0 0 0 0.35959,-0.89536 13.22914,13.22914 0 0 0 0.12674,-0.38103 13.22914,13.22914 0 0 0 0.24773,-0.8553 13.22914,13.22914 0 0 0 0.1053,-0.46905 13.22914,13.22914 0 0 0 0.1463,-0.79501 13.22914,13.22914 0 0 0 0.0678,-0.55841 13.22914,13.22914 0 0 0 0.067,-0.81537 13.22914,13.22914 0 0 0 0.0199,-0.56337 13.22914,13.22914 0 0 0 0,-1.4e-4 13.22914,13.22914 0 0 0 0,-1.3e-4 13.22914,13.22914 0 0 0 -0.003,-0.0628 13.22914,13.22914 0 0 0 -0.91987,-4.75653 13.22914,13.22914 0 0 0 -0.12125,-0.33226 13.22914,13.22914 0 0 0 -0.18743,-0.38773 13.22914,13.22914 0 0 0 -1.0789,-1.93019 13.22914,13.22914 0 0 0 -1.4e-4,-1.3e-4 13.22914,13.22914 0 0 0 -1.70162,-2.02022 13.22914,13.22914 0 0 0 -0.9933,-0.87272 13.22914,13.22914 0 0 0 -1.4e-4,0 13.22914,13.22914 0 0 0 -1.07555,-0.76915 13.22914,13.22914 0 0 0 -1.3e-4,0 13.22914,13.22914 0 0 0 -0.65796,-0.37754 13.22914,13.22914 0 0 0 -0.48901,-0.28055 13.22914,13.22914 0 0 0 -0.46074,-0.20605 13.22914,13.22914 0 0 0 -0.74638,-0.33401 13.22914,13.22914 0 0 0 -2.545,-0.70658 13.22914,13.22914 0 0 0 -1.4e-4,0 13.22914,13.22914 0 0 0 -2.2173,-0.19146 13.22914,13.22914 0 0 0 -0.0311,-0.001 z m 1.3e-4,4.11573 a 4.0177389,4.0177389 0 0 1 4.01766,4.01767 4.0177389,4.0177389 0 0 1 -4.01766,4.01779 4.0177389,4.0177389 0 0 1 -4.01779,-4.01779 4.0177389,4.0177389 0 0 1 4.01779,-4.01767 z m 0.0979,9.79925 a 8.8194272,8.8194272 0 0 1 8.6011,6.91918 11.563248,11.563248 0 0 1 -8.69917,3.95831 11.563248,11.563248 0 0 1 -8.54792,-3.795 8.8194272,8.8194272 0 0 1 8.64599,-7.08249 z"
       id="path16"
       inkscape:connector-curvature="0" />
  </g>
</svg>
